# xmcd
#
# Track frame offsets:
#   150
#   28658
#   41163
#   56000
#   75801
#   91798
#   109342
#   126416
#   142303
#   159397
#   175744
#   192344
#   213728
#   230351
#   249272
#   269255
#   289054
#   307840
#   324426
#   331596
#
# Disc length: 4745 seconds
#
# Revision: 0
# Processed by: cddbd v1.5PL3 Copyright (c) Steve Scherf et al.
# Submitted via: Media_Universe 3.0
#
DISCID=15128714
DTITLE=Brad Paisley - Part II and Mud On The Tires
DYEAR=2004
DGENRE=Country
TTITLE0=I Wish You'd Stay
TTITLE1=All You Really Need Is Love
TTITLE2=Munster Rag
TTITLE3=You Have That Effect On Me
TTITLE4=Too Country
TTITLE5=Old Rugged Cross
TTITLE6=Sharp Dressed Man
TTITLE7=Mud On The Tires
TTITLE8=Celebrity
TTITLE9=Ain't Nothin' Like It
TTITLE10=Little Moments
TTITLE11=That's Love
TTITLE12=Somebody Knows You Now
TTITLE13=Famous People
TTITLE14=Hold Me In Your Arms
TTITLE15=Whiskey Lullaby
TTITLE16=The Best Thing That I Had Going
TTITLE17=The Cigar Song
TTITLE18=Make A Mistake
TTITLE19=Is It Raining At Your House/Farther Along
EXTD=
EXTT0=
EXTT1=
EXTT2=
EXTT3=
EXTT4=
EXTT5=
EXTT6=
EXTT7=
EXTT8=
EXTT9=
EXTT10=
EXTT11=
EXTT12=
EXTT13=
EXTT14=
EXTT15=
EXTT16=
EXTT17=
EXTT18=
EXTT19=
PLAYORDER=
